<?xml version="1.0" encoding="utf-8"?>
<!-- Generator: Adobe Illustrator 23.0.5, SVG Export Plug-In . SVG Version: 6.00 Build 0)  -->
<svg version="1.1" id="Layer_1" xmlns="http://www.w3.org/2000/svg" xmlns:xlink="http://www.w3.org/1999/xlink" x="0px" y="0px"
	 viewBox="0 0 13 12" style="enable-background:new 0 0 13 12;" xml:space="preserve">
<style type="text/css">
	.st0{enable-background:new    ;}
	.st1{fill:#07043B;}
</style>
<g class="st0">
	<path class="st1" d="M5.1,2.2C4,2.4,3.3,3.1,2.8,4.5c-0.2,0.7-0.3,1.3-0.3,2c0,0.1,0,0.1,0,0.2c0,0.1,0,0.2,0,0.4h2.5v5H0.2V7.4
		c0-2.3,0.5-4,1.4-5.3C2.4,0.9,3.6,0.2,5.1,0V2.2z M12.8,2.2c-0.8,0.1-1.5,0.6-1.9,1.4c-0.4,0.8-0.7,1.8-0.7,2.8c0,0.1,0,0.2,0,0.3
		c0,0.1,0,0.2,0.1,0.3h2.5v5H7.9V7.4c0-1.8,0.4-3.5,1.2-4.9c0.8-1.4,2-2.3,3.8-2.5V2.2z"/>
</g>
</svg>
